<svg width="175" height="175" viewBox="0 0 175 175" fill="none" xmlns="http://www.w3.org/2000/svg">
<path d="M15.7441 117.848C16.099 106.604 19.5164 96.3959 26.6379 87.5243C32.69 79.9848 40.4823 74.9195 49.5094 71.6334C55.6879 70.2917 61.8226 68.9111 68.2733 69.4799C75.7108 70.1361 83.0511 71.1084 90.2212 73.2278C96.8712 75.1966 103.21 77.8361 108.757 82.075C113.511 85.7111 117.764 89.8139 120.477 95.2778C123.318 101.037 124.497 107.475 123.88 113.867C123.07 124.395 119.583 134.542 113.749 143.344C104.873 156.708 92.5448 165.127 76.7754 168.35C71.9143 169.322 67.0872 169.021 62.2212 168.297C51.7893 166.746 43.083 161.822 35.4073 154.841C30.2247 150.206 25.6979 144.886 21.9518 139.028C18.7691 134.057 16.7486 128.433 16.0407 122.573C15.8608 121.042 15.8414 119.462 15.7441 117.848Z" fill="#F2B770"/>
<path d="M161.132 153.65C160.528 153.703 159.926 153.538 159.433 153.186C158.94 152.834 158.589 152.318 158.443 151.73C158.249 150.972 158.059 150.242 157.855 149.518C155.522 141.181 151.672 133.447 147.929 125.699C144.264 118.115 140.37 110.629 136.316 103.274C135.508 101.642 134.518 100.105 133.365 98.6951C133.18 98.6951 133.02 98.666 132.966 98.7291C128.178 103.765 122.204 106.701 115.622 108.592C105.137 111.601 95.531 109.72 86.8344 103.289C81.356 99.2347 76.49 94.466 71.765 89.5854C71.5925 89.4101 71.4302 89.2251 71.2789 89.0312C69.7768 87.0868 70.2678 85.5555 72.6594 85.0305C75.6376 84.3419 78.6632 83.8772 81.7108 83.6403C86.0421 83.3534 90.3587 82.95 94.6657 82.4639C101.199 81.725 107.669 82.493 114.144 83.2368C117.95 83.6143 121.724 84.2641 125.437 85.1812C125.529 85.2055 125.655 85.1229 125.772 85.084C125.83 84.5979 125.432 84.35 125.198 84.0291C121.752 79.4014 118.242 73.5972 114.907 68.8965C112.939 66.1257 111.879 64.4875 108.68 63.6514C101.141 61.7069 91.0879 63.0534 84.049 62.8444C78.3343 62.7485 72.6398 62.1368 67.0351 61.0166C63.2316 60.2178 59.6451 58.6078 56.5205 56.2965C52.1188 52.9448 48.0094 49.2257 44.2365 45.1791C38.9476 39.6472 33.6101 34.1639 28.8171 28.1944C25.4143 23.9312 22.1914 19.5125 19.0414 15.0694C18.8664 14.8215 18.6914 14.5833 18.5553 14.3111C17.7921 13.018 17.9914 12.3666 19.3914 11.7639C20.3417 11.3584 21.3674 11.1596 22.4004 11.1805C31.0778 11.2751 39.7357 12.0242 48.3004 13.4215C58.6187 14.9987 68.7541 17.601 78.556 21.1896C84.8453 23.5198 90.5045 27.2848 95.0837 32.1854C103.124 40.6486 110.839 49.3937 117.352 59.1014C122.009 66.043 127.016 72.7125 131.878 79.518C132.596 80.5267 133.26 81.5733 133.866 82.6535C138.771 91.4035 143.748 100.076 148.507 108.903C153.368 117.931 157.918 127.137 161.496 136.772C163.13 141.147 163.971 145.78 164.826 150.383C165.118 151.953 164.7 152.624 163.222 153.198C162.55 153.446 161.846 153.599 161.132 153.65Z" fill="#D9D4E7"/>
</svg>
