<svg width="138" height="147" viewBox="0 0 138 147" fill="none" xmlns="http://www.w3.org/2000/svg">
<path d="M85.6449 56.2296C86.8352 56.4268 87.5647 55.7486 88.3183 55.383C99.9047 49.5387 111.837 44.4544 123.836 39.5096C124.332 39.3052 124.838 39.127 125.353 38.9756C128.084 38.1964 129.552 38.8506 130.723 41.4817C131.676 43.8017 132.363 46.2221 132.773 48.6969C133.253 51.0683 133.733 53.4397 134.098 55.8256C134.577 58.9329 133.997 60.02 131.179 61.4101C127.541 63.2043 123.61 64.1038 119.689 64.9937C112.456 66.6436 105.213 68.2454 97.9752 69.8616C97.2888 70.0155 96.5641 70.078 95.9881 70.8236C96.5305 72.1175 97.908 71.9636 98.8919 72.2666C108.688 75.0517 118.513 77.7358 128.324 80.4872C130.642 81.1365 132.965 81.8244 135.221 82.6662C138.019 83.7148 138.528 85.0424 137.529 87.9573C136.761 90.1796 135.513 92.1518 134.361 94.172C133.296 96.0384 132.163 97.8662 131.088 99.7277C130.061 101.498 128.559 102.133 126.562 101.839C124.971 101.593 123.41 101.179 121.906 100.603C110.349 96.2981 98.6904 92.2624 87.2335 87.6831C86.5184 87.3993 85.832 86.8943 84.8337 87.2743C85.1649 90.7712 86.024 94.148 86.6336 97.5536C88.7934 109.641 91.0253 121.715 93.1563 133.803C93.5688 136.188 93.8142 138.599 93.8907 141.018C94.0155 144.323 93.0171 145.41 89.835 145.852C84.8673 146.54 79.8996 147.18 74.8648 146.954C70.7611 146.771 69.638 145.631 69.614 141.537C69.5756 134.451 69.5548 127.365 69.5516 120.281C69.5516 112.297 68.99 104.336 68.3756 96.3799C68.294 95.3361 68.2748 94.2442 67.6125 93.2196C66.6525 93.5419 66.6046 94.3981 66.3454 95.0908C64.6079 99.6989 62.9616 104.341 61.1137 108.905C58.5349 115.501 55.2826 121.812 51.4088 127.737C48.6874 131.811 47.7755 132.066 43.163 130.431C40.278 129.468 37.4675 128.294 34.7539 126.919C33.7989 126.429 32.8827 125.866 32.0133 125.236C29.5175 123.35 29.2919 121.927 31.0246 119.305C36.4674 111.07 42.731 103.456 48.8122 95.7016C50.1945 93.9411 51.5768 92.1758 52.9255 90.4105C53.4535 89.713 54.1494 89.054 53.8566 87.9381C52.9207 87.1781 52.0424 87.9381 51.1784 88.2026C39.28 92.0507 27.4584 96.1827 15.3249 99.266C13.0738 99.8384 10.8324 100.468 8.55735 100.925C5.49036 101.483 4.05046 100.68 2.94653 97.7267C1.73702 94.4558 0.546697 91.1753 0.105127 87.6735C-0.336442 84.1717 0.551497 82.8634 3.94486 82.1515C17.3071 79.2654 30.7126 76.5765 44.2621 74.5659C44.7709 74.4889 45.3708 74.5996 45.702 73.8588C45.222 72.8535 44.1133 72.8968 43.259 72.637C37.1682 70.7418 31.1494 68.7504 25.169 66.6099C20.5471 64.9331 16.0304 62.9782 11.6435 60.756C10.1713 60.0932 8.8174 59.193 7.63581 58.0912C5.97993 56.4268 5.71594 54.9982 6.84867 53.0165C8.50029 50.1376 10.4467 47.4389 12.6563 44.9643C13.9858 43.4876 15.5121 43.0162 17.4799 43.7329C21.2717 45.1086 24.8954 46.845 28.5192 48.543C36.0403 52.0929 43.5565 55.6572 51.0776 59.1782C51.9992 59.6063 52.8967 60.4 54.0198 59.919C54.3366 59.5198 54.1494 59.1879 54.0198 58.8848C47.4875 45.806 42.1838 32.2174 37.269 18.4796C36.7266 16.9644 36.1938 15.4396 35.6035 13.9437C34.7108 11.6925 35.4643 9.91277 37.1298 8.4072C38.6293 7.12056 40.2955 6.04295 42.083 5.20364C45.8754 3.39192 49.7678 1.79877 53.7414 0.431983C56.2613 -0.491564 57.2644 0.0038804 58.3875 2.51958C59.8562 5.80491 60.7634 9.27783 61.5937 12.7604C64.1327 23.4004 67.7613 33.7037 71.0874 44.0984C71.2218 44.5169 71.4282 44.9114 71.5674 45.2673C73.0793 45.6762 73.3097 44.5169 73.6793 43.6703C74.8696 40.967 75.9783 38.2253 77.159 35.5172C80.858 27.0705 84.5713 18.6287 88.2991 10.1918C89.9214 6.51681 90.8669 5.97327 94.721 6.76213C99.1367 7.66163 103.25 9.41252 107.2 11.5242C109.038 12.4862 109.485 13.7224 108.693 15.81C108.04 17.5724 107.234 19.2738 106.283 20.8943C102.612 27.0465 98.8103 33.1217 95.1386 39.2739C92.11 44.3534 89.2014 49.5002 86.2352 54.6134C85.8822 55.0812 85.6766 55.644 85.6449 56.2296Z" fill="#EAB87B"/>
</svg>
