<svg width="62" height="62" viewBox="0 0 62 62" fill="none" xmlns="http://www.w3.org/2000/svg">
<circle cx="31" cy="31" r="31" fill="white"/>
<g clip-path="url(#clip0)">
<path d="M46.6716 22.0042C46.5557 21.8643 46.4145 21.7495 46.256 21.6665C46.0976 21.5835 45.9251 21.5339 45.7483 21.5205C45.5714 21.507 45.3938 21.5301 45.2255 21.5883C45.0573 21.6465 44.9016 21.7387 44.7675 21.8596C43.4754 23.0256 38.9861 24.7211 34.5644 25.7351C34.3611 25.3976 34.1331 25.0771 33.8823 24.7765C35.1871 24.1074 36.2373 22.9983 36.8627 21.6289C37.4881 20.2595 37.6522 18.7099 37.3283 17.2311C37.0045 15.7523 36.2117 14.4308 35.0783 13.4806C33.9449 12.5305 32.5373 12.0072 31.0834 11.9957C29.6295 11.9841 28.2145 12.4849 27.0673 13.417C25.9202 14.349 25.1082 15.6577 24.7628 17.1312C24.4174 18.6047 24.5588 20.1567 25.1641 21.5359C25.7695 22.9151 26.8033 24.0407 28.0982 24.7305C27.7712 25.0709 27.4703 25.4375 27.1983 25.8271C23.4488 25.0169 19.5903 23.4688 18.2459 22.2136C17.9778 21.9746 17.6308 21.8547 17.279 21.8793C16.9272 21.9039 16.5986 22.0711 16.3635 22.3453C16.1283 22.6194 16.0054 22.9786 16.0208 23.3461C16.0363 23.7136 16.189 24.0603 16.4463 24.3118C18.2144 25.9641 22.2295 27.515 25.7757 28.3825C25.5157 28.9589 25.2997 29.5091 25.1296 29.9709C24.2856 32.2907 23.5099 35.6394 24.0993 37.4429C24.2721 37.9714 24.6392 38.4521 25.1314 38.8764C25.3114 40.3907 25.4014 42.0045 25.4914 43.7132C25.5813 45.3504 25.6713 47.0422 25.8558 48.748C25.8925 49.092 26.0494 49.41 26.2966 49.641C26.5438 49.872 26.8638 49.9999 27.1957 50.0003C27.2459 50.0003 27.296 49.9975 27.3459 49.9919C27.5221 49.9714 27.6927 49.915 27.848 49.8258C28.0033 49.7365 28.1402 49.6162 28.2509 49.4718C28.3616 49.3273 28.444 49.1615 28.4933 48.9839C28.5426 48.8062 28.5578 48.6201 28.5382 48.4363C28.3645 46.8065 28.2745 45.1505 28.1864 43.5545C28.127 42.4683 28.0694 41.4197 27.9893 40.3973C28.4775 40.5582 28.9753 40.6858 29.4794 40.7794C30.053 40.8864 30.6343 40.9414 31.217 40.9437C31.7688 40.9456 32.3193 40.8864 32.8592 40.7672C32.9285 42.1698 32.825 43.1358 32.6999 44.3018C32.5299 45.7257 32.444 47.1591 32.4426 48.594C32.4426 48.9675 32.5848 49.3257 32.8379 49.5898C33.091 49.8539 33.4343 50.0022 33.7923 50.0022C34.1503 50.0022 34.4936 49.8539 34.7467 49.5898C34.9998 49.3257 35.142 48.9675 35.142 48.594C35.1432 47.2638 35.2237 45.935 35.3832 44.6153C35.5407 43.1442 35.6901 41.7539 35.4732 39.4472C35.4732 39.4378 35.4732 39.4294 35.4732 39.4209C35.6528 39.2509 35.8194 39.0667 35.9717 38.8699C37.6517 36.6853 37.5842 33.1432 35.7737 28.3365C39.4459 27.4362 44.5849 25.751 46.5348 23.9917C46.6689 23.8706 46.7789 23.7231 46.8584 23.5577C46.9378 23.3923 46.9853 23.2121 46.998 23.0276C47.0107 22.843 46.9884 22.6576 46.9324 22.482C46.8764 22.3064 46.7878 22.144 46.6716 22.0042ZM31.0334 14.8168C31.7763 14.8168 32.5024 15.0466 33.1201 15.4771C33.7377 15.9077 34.2191 16.5197 34.5034 17.2358C34.7877 17.9518 34.8621 18.7397 34.7171 19.4998C34.5722 20.2599 34.2145 20.9581 33.6892 21.5062C33.164 22.0542 32.4947 22.4274 31.7662 22.5786C31.0376 22.7298 30.2824 22.6522 29.5961 22.3556C28.9098 22.059 28.3232 21.5568 27.9105 20.9124C27.4978 20.2679 27.2775 19.5103 27.2775 18.7353C27.2785 17.6964 27.6745 16.7002 28.3787 15.9656C29.0828 15.2309 30.0376 14.8178 31.0334 14.8168ZM29.2338 37.8391C27.7697 37.4363 26.8321 36.7698 26.6477 36.4956C26.4677 35.8253 26.7079 33.5853 27.6582 30.9708C28.5733 28.4566 29.8322 26.5142 30.7923 26.1368C31.7524 25.7594 32.7773 28.1309 33.0679 28.866C34.1558 31.6101 35.6073 36.4111 33.1174 37.7273C32.1987 38.2174 30.7464 38.2549 29.2329 37.8419L29.2338 37.8391Z" fill="#C68CAE"/>
</g>
<defs>
<clipPath id="clip0">
<rect width="31" height="38" fill="white" transform="translate(16 12)"/>
</clipPath>
</defs>
</svg>
