<svg width="254" height="179" viewBox="0 0 254 179" fill="none" xmlns="http://www.w3.org/2000/svg">
<path d="M124.822 132.862C121.711 119.329 122.56 106.071 128.262 93.24C133.111 82.3289 140.809 73.8267 150.542 67.0622C157.498 63.5067 164.378 59.9511 172.258 58.5733C181.338 57.0089 190.409 55.8578 199.631 56.1244C208.191 56.3733 216.582 57.5244 224.542 60.8355C231.36 63.6755 237.733 67.2311 242.689 72.8889C248.022 78.9778 251.236 86.0489 252.631 93.9955C254.925 107.027 254.085 119.871 249.836 132.373C243.458 151.12 231.4 165.053 213.6 173.871C208.133 176.578 202.249 177.733 196.213 178.404C183.276 179.844 171.325 176.711 159.969 170.8C152.319 166.91 145.236 161.993 138.916 156.187C133.548 151.258 129.362 145.181 126.671 138.409C125.965 136.622 125.449 134.76 124.822 132.862Z" fill="#F2B770"/>
<path d="M89.351 56.926C89.9632 56.7096 90.1532 56.1238 90.4752 55.6541C95.8057 47.9116 101.099 40.1427 106.483 32.4319C108.976 28.9546 111.804 25.7303 114.927 22.8052C120.895 17.0302 128.446 13.1611 136.619 11.6902C142.672 10.5502 148.573 11.516 153.545 15.2791C159.878 20.0713 161.678 26.7266 160.374 34.4057C159.229 41.1349 155.65 46.4232 150.874 51.0624C143.691 58.0396 135.125 62.7474 125.868 66.3257C123.979 67.0541 122.073 67.7296 120.168 68.4105C119.64 68.6005 119.112 68.7324 118.78 69.466C119.777 69.9621 120.712 69.6824 121.582 69.5663C128.391 68.6849 135.189 67.6663 142.002 66.8641C149.625 65.8881 157.353 66.1089 164.908 67.5185C168.892 68.2996 172.45 69.9674 175.141 73.1763C177.31 75.7624 178.234 78.5755 177.611 82.006C175.611 93.026 167.32 100.299 156.094 100.668C145.881 101.006 135.901 99.8713 126.243 96.2982C121.366 94.4985 116.431 92.8413 111.433 91.3952C110.631 91.163 109.781 90.6563 109.264 91.8068C109.444 92.7832 110.272 93.0735 110.884 93.5169C114.952 96.5337 118.85 99.774 122.559 103.223C126.963 107.217 130.726 111.864 133.716 117.003C137.695 123.901 138.645 131.253 136.883 138.995C135.415 145.55 131.33 149.092 124.359 150.126C119.313 150.87 114.399 150.174 109.581 148.68C106.389 147.655 103.601 145.652 101.611 142.954C97.7163 137.903 95.3202 132.087 93.0824 126.207C89.8788 117.795 88.2796 108.97 86.5696 100.177C86.4746 99.6813 86.3796 99.1852 86.2371 98.6996C86.1843 98.5149 85.9996 98.3671 85.8782 98.1982C84.9704 98.346 85.0285 99.0743 84.8966 99.6918C83.7431 105.506 82.0268 111.194 79.7718 116.676C75.9032 125.722 70.5991 133.881 64.4135 141.481C61.5582 144.991 58.1066 147.667 53.5518 148.559C48.6985 149.554 43.6611 149.129 39.0432 147.334C33.1691 145.054 31.1741 140.046 31.5382 134.694C32.066 126.524 35.2696 119.457 40.7849 113.44C47.5482 106.088 54.9444 99.343 62.8882 93.2846C63.5954 92.7569 64.5454 92.3769 64.8199 91.2632C64.0335 90.6985 63.2366 90.9888 62.5082 91.126C52.5332 93.0735 42.4791 92.4191 32.4249 92.0707C27.433 91.9847 22.4655 91.3547 17.6102 90.1918C12.3324 88.8355 7.62461 86.4605 3.79822 82.4546C-0.513721 77.9421 -0.58761 71.7038 3.74545 67.1491C6.44239 64.2991 9.82017 62.4888 13.4354 61.1377C19.0753 59.0437 25.1009 58.1922 31.1002 58.6413C44.6482 59.528 57.0299 64.1196 69.0632 69.9674C69.4538 70.1574 69.8391 70.3474 70.2455 70.4952C70.3563 70.5427 70.5199 70.4952 70.7416 70.4477C71.1849 69.466 70.4354 68.8168 69.9657 68.173C67.8546 65.3194 65.7277 62.4853 63.5849 59.6705C60.1258 55.2116 57.0284 50.4835 54.3224 45.5313C50.6596 38.7388 48.8493 31.4713 49.6674 23.8027C50.4854 16.1341 53.1877 9.1938 59.3891 4.08492C61.7979 2.06576 64.7224 0.75888 67.8335 0.311304C72.6943 -0.364251 76.5946 1.59908 79.6452 5.31992C81.8407 8.00103 83.0229 11.2099 83.9782 14.4769C85.5727 20.1842 86.6345 26.0271 87.1502 31.9305C87.9794 39.6269 88.3689 47.3644 88.3166 55.1052C88.306 55.9127 88.2532 56.7466 89.351 56.926Z" fill="#DB8276"/>
</svg>
