<svg width="232" height="289" viewBox="0 0 232 289" fill="none" xmlns="http://www.w3.org/2000/svg">
<path d="M142.558 160.02C141.906 156.172 140.549 156.079 139.545 159.816C138.011 165.379 136.01 173.102 135.113 177.033C133.358 184.785 131.395 192.462 129.333 200.092C125.208 215.289 120.623 230.291 116.138 245.33C115.924 246.15 115.496 246.866 114.919 247.369C110.718 250.744 103.419 241.973 101.38 238.181C97.2707 230.467 97.8764 220.843 100.613 211.395C100.836 210.625 102.584 206.342 101.02 205.516C99.7701 204.858 98.0374 207.723 97.4164 208.52C94.3957 212.396 91.4901 216.383 88.1551 219.888C85.1804 223.022 82.9034 222.938 79.0087 222.002C70.5634 219.793 63.1485 213.728 58.3087 205.071C56.0087 200.992 53.4481 195.364 53.3791 190.32C53.3024 184.692 56.5301 181.66 59.8574 178.498C62.5867 175.911 65.6687 172.889 68.2217 170.07C71.3957 166.575 68.5054 165.249 65.4004 167.187C60.1871 170.45 54.0921 172.36 48.3727 171.303C42.6534 170.246 27.8644 159.092 38.4674 153.158C54.9661 143.887 87.0587 126.91 99.2564 119.956C102.323 118.204 102.062 116.535 98.6737 116.247C91.8504 115.58 83.9077 115.709 78.3954 112.214C53.4251 96.3684 49.2621 77.6023 40.7827 68.6364C34.9637 62.5541 21.2021 47.6635 7.3024 42.6289C-0.241599 39.8937 -5.63893 29.2126 10.4917 20.5527C19.2854 15.8426 50.6957 -7.04024 88.6687 3.15877C97.401 5.47673 112.673 13.8399 119.995 19.8481C128.213 26.6258 136.21 33.7558 143.93 41.3587C149.856 47.1814 155.79 52.9763 161.563 58.6228C163.02 58.5672 163.902 57.6956 164.845 57.1023C182.026 45.8184 197.98 42.2673 211.542 56.1751C213.566 58.252 229.107 61.2375 228.976 68.5066C228.884 73.5041 205.256 85.131 201.974 88.5523C201.161 89.3849 200.498 90.4111 200.027 91.5668C199.556 92.7226 199.286 93.9832 199.235 95.2703C199.184 96.5574 199.353 97.8435 199.73 99.0485C200.108 100.253 200.686 101.352 201.43 102.275C201.867 102.84 202.197 103.267 202.388 103.508C215.422 120.929 229.521 137.591 238.575 158.647C245.061 173.751 244.532 190.311 242.408 206.638C238.1 240.082 226.669 271.309 215.307 285.625C211.473 290.437 206.252 289.463 204.06 283.344V283.242C195.197 258.134 179.948 235.455 175.264 227.685C170.326 219.489 163.948 213.064 158.75 205.192C153.91 197.859 149.994 189.701 147.127 180.983C145.791 177.073 144.764 173.018 144.06 168.874C143.754 167.103 143.133 163.394 142.558 160.02Z" fill="#B6D2E4"/>
</svg>
