<svg width="62" height="62" viewBox="0 0 62 62" fill="none" xmlns="http://www.w3.org/2000/svg">
<circle cx="31" cy="31" r="31" fill="white"/>
<path d="M48.44 23.2594C48.043 21.214 47.5929 18.895 46.9982 15.9698C46.9659 15.8107 46.902 15.6598 46.8103 15.526C46.7185 15.3921 46.6008 15.2781 46.4641 15.1907C46.3274 15.1032 46.1746 15.0442 46.0146 15.017C45.8547 14.9899 45.6909 14.9952 45.533 15.0327C39.4246 16.4807 34.6822 18.7102 30.2947 22.2166C24.5607 17.8215 18.1691 16.4468 13.7663 16.0747C13.5963 16.0603 13.4252 16.082 13.2643 16.1384C13.1033 16.1948 12.956 16.2845 12.8322 16.4018C12.7083 16.5191 12.6106 16.6613 12.5455 16.819C12.4804 16.9767 12.4493 17.1464 12.4544 17.317C12.6157 22.7897 12.3543 28.925 12.1615 33.4041C12.0808 35.2114 12.0171 36.7716 12.0001 37.8137C11.9959 38.0922 12.0878 38.3637 12.2603 38.5824C12.4329 38.801 12.6755 38.9535 12.9473 39.014C20.8404 40.7712 25.8072 42.8553 30.0914 46.2068C30.3353 46.3976 30.6431 46.4877 30.9513 46.4584C31.2596 46.4291 31.5449 46.2827 31.7486 46.0494C36.4765 40.6316 44.3954 37.9138 50.2061 36.5876C50.3662 36.5511 50.5172 36.4824 50.6499 36.3856C50.7826 36.2889 50.8943 36.1661 50.9781 36.0249C51.0618 35.8836 51.116 35.7267 51.1372 35.5638C51.1585 35.4009 51.1464 35.2354 51.1017 35.0774C49.935 30.9446 49.3703 28.0517 48.44 23.2594ZM14.5803 33.5106C14.7578 29.3657 14.9967 23.8148 14.9031 18.6311C18.9912 19.1469 24.4146 20.6095 29.2394 24.4694L29.2596 24.4863L29.5782 42.8529C25.6305 40.2175 21.0179 38.407 14.4424 36.8741C14.4755 35.9467 14.5247 34.79 14.5803 33.5074V33.5106ZM31.9947 42.3896L31.68 24.245V24.2135C35.5205 21.1188 39.6594 19.0726 44.8795 17.6955C45.3507 20.0404 45.7275 21.9817 46.0664 23.7236C46.9159 28.1001 47.4621 30.9131 48.4392 34.5236C43.2247 35.8248 36.7629 38.185 31.9947 42.3872V42.3896Z" fill="#C68CAE"/>
<path d="M36.6472 28.5642C38.2333 26.945 40.018 26.3598 42.3828 25.9409C42.5393 25.9131 42.6888 25.8547 42.8227 25.7692C42.9567 25.6836 43.0725 25.5725 43.1635 25.4421C43.2545 25.3118 43.319 25.1648 43.3532 25.0095C43.3875 24.8542 43.3908 24.6937 43.3631 24.5372C43.3353 24.3806 43.277 24.231 43.1915 24.097C43.1059 23.963 42.9948 23.8472 42.8646 23.7561C42.7343 23.665 42.5873 23.6005 42.4321 23.5663C42.2769 23.532 42.1165 23.5287 41.96 23.5565C39.5743 23.9794 37.0699 24.6736 34.9181 26.8659C34.6935 27.0953 34.5691 27.4045 34.5723 27.7257C34.5756 28.0468 34.7062 28.3535 34.9355 28.5783C35.1648 28.8031 35.4739 28.9276 35.7949 28.9243C36.1159 28.921 36.4225 28.7904 36.6472 28.561V28.5642Z" fill="#C68CAE"/>
<path d="M43.0253 29.7822C40.2878 30.1212 38.1392 30.5635 35.4162 33.1723C35.1844 33.3944 35.0502 33.6996 35.0433 34.0206C35.0363 34.3417 35.1571 34.6524 35.3791 34.8843C35.6011 35.1163 35.9061 35.2505 36.227 35.2575C36.548 35.2644 36.8585 35.1436 37.0904 34.9215C39.3301 32.7744 40.9179 32.4822 43.323 32.1843C43.4822 32.1665 43.6362 32.1173 43.7763 32.0395C43.9163 31.9617 44.0395 31.8569 44.1387 31.7311C44.2379 31.6053 44.3112 31.4611 44.3543 31.3068C44.3974 31.1525 44.4094 30.9911 44.3897 30.8321C44.37 30.6731 44.3189 30.5196 44.2395 30.3804C44.16 30.2413 44.0538 30.1193 43.9269 30.0216C43.8 29.9239 43.6549 29.8523 43.5002 29.8111C43.3454 29.7698 43.184 29.7597 43.0253 29.7813V29.7822Z" fill="#C68CAE"/>
<path d="M18.2786 26.409C20.8265 26.6318 22.5959 27.4018 24.8065 29.2495C24.9274 29.3584 25.069 29.4418 25.2228 29.4947C25.3767 29.5476 25.5396 29.5689 25.7018 29.5574C25.8641 29.5459 26.0223 29.5018 26.1672 29.4277C26.312 29.3537 26.4404 29.2511 26.5448 29.1263C26.6491 29.0014 26.7272 28.8568 26.7744 28.7011C26.8216 28.5454 26.837 28.3817 26.8195 28.2199C26.8021 28.0581 26.7523 27.9015 26.673 27.7594C26.5937 27.6173 26.4866 27.4927 26.358 27.393C23.7561 25.2184 21.5502 24.2667 18.4899 24.0028C18.1702 23.9748 17.8523 24.075 17.6064 24.2814C17.3604 24.4878 17.2065 24.7834 17.1785 25.1034C17.1504 25.4233 17.2506 25.7413 17.4569 25.9874C17.6632 26.2334 17.9588 26.3874 18.2786 26.4155V26.409Z" fill="#C68CAE"/>
<path d="M18.3743 30.4683C18.0533 30.4576 17.7412 30.5749 17.5067 30.7944C17.2722 31.0139 17.1344 31.3176 17.1237 31.6387C17.113 31.9599 17.2303 32.2721 17.4497 32.5067C17.6691 32.7413 17.9726 32.8792 18.2936 32.8899C20.9908 32.9778 23.1006 33.898 24.9337 35.7868C25.044 35.9026 25.1762 35.9954 25.3225 36.0598C25.4689 36.1242 25.6265 36.1589 25.7864 36.162C25.9463 36.1651 26.1052 36.1365 26.2539 36.0778C26.4026 36.0191 26.5383 35.9315 26.653 35.8201C26.7676 35.7086 26.8591 35.5755 26.9221 35.4285C26.9851 35.2815 27.0184 35.1235 27.02 34.9635C27.0215 34.8036 26.9914 34.6449 26.9314 34.4966C26.8713 34.3484 26.7825 34.2135 26.67 34.0998C24.4061 31.7671 21.6952 30.5797 18.3743 30.4683Z" fill="#C68CAE"/>
</svg>
