<svg width="234" height="323" viewBox="0 0 234 323" fill="none" xmlns="http://www.w3.org/2000/svg">
<path d="M106.05 136.994L119.927 153.532C121.026 154.688 122.403 155.522 123.917 155.952C141.288 162.291 157.021 171.665 171.713 183.02C182.25 191.176 189.51 201.948 195.066 214.087C202.39 230.044 207.598 246.747 212.142 263.723C216.102 278.535 218.797 293.632 221.941 308.638C222.494 311.296 223.208 313.93 223.632 316.612C224.366 321.236 222.484 323.142 217.929 322.467C214.137 321.761 210.476 320.448 207.078 318.575C192.213 311.038 177.424 303.345 162.539 295.819C149.727 289.533 139.467 278.806 133.551 265.512C129.331 256.198 125.974 246.495 123.523 236.53C117.446 212.454 111.668 188.329 106.575 163.964C106.121 161.412 104.934 159.059 103.168 157.212C100.103 154.061 97.2656 150.74 93.6954 146.806C94.1555 148.786 94.4002 150.008 94.7243 151.197C101.017 173.818 105.367 196.966 107.724 220.374C109.285 237.799 108.817 255.353 106.329 272.663C106.259 273.401 106.116 274.129 105.903 274.837C104.962 277.775 103.129 278.629 100.295 277.484C98.1187 276.432 96.1133 275.038 94.3506 273.353C82.5927 263.677 74.8946 250.976 69.0499 236.936C66.1216 229.607 63.7648 222.049 62.002 214.334C61.3143 211.574 60.8822 208.752 60.7116 205.908C59.7398 188.495 60.9127 171.294 65.5335 154.442C67.2282 148.22 69.9619 142.429 72.4635 136.54C73.9071 133.458 75.156 130.284 76.2024 127.037C67.3962 116.916 57.4958 108.087 47.6258 98.7828C47.4092 100.404 47.4866 102.052 47.854 103.644C50.5865 128.999 47.0083 153.396 37.7941 177.058C29.8361 197.299 18.2526 215.815 3.64873 231.638C2.84492 232.554 1.99444 233.426 1.10089 234.25C-2.55336 237.545 -5.68455 237.024 -7.93441 232.598C-10.4732 227.574 -12.7057 222.391 -14.6191 217.081C-21.831 196.761 -21.0088 176.557 -13.5823 156.49C-8.56404 142.98 -0.884881 130.969 7.00777 119.129C14.2243 108.314 21.9015 97.857 30.0394 87.7576C30.5761 87.0966 31.0114 86.3656 31.4774 85.6649C31.3071 84.1633 30.1461 83.6315 29.2496 82.826C12.3865 68.0877 -5.53508 54.6866 -24.3614 42.7377C-36.9065 34.6973 -49.4417 26.6498 -61.967 18.5953C-63.6161 17.576 -65.2052 16.4568 -66.7257 15.2436C-69.1169 13.233 -69.4357 10.8171 -67.5936 8.42697C-65.1946 5.5 -62.3586 2.98563 -59.1921 0.97841C-57.2184 -0.342334 -55.198 0.64528 -53.3594 1.54401C-50.2177 3.0849 -47.1527 4.78209 -44.0774 6.49967C-33.2448 12.453 -23.0613 19.4513 -12.6733 26.1771C-1.18048 33.6215 10.244 41.1498 21.2227 49.3888C25.8842 52.8765 30.3694 56.5536 34.9017 60.0854C36.2328 60.129 36.9744 59.2058 37.8721 58.5886C46.7453 52.2124 56.4987 47.3226 66.4634 42.9952C76.4282 38.6679 86.6025 38.7692 96.8842 40.7239C112.514 43.6382 127.514 49.4052 141.178 57.7535C144.479 59.7446 147.859 61.734 151.082 63.8299C154.722 66.2571 154.75 68.6277 151.234 71.3115C150.061 72.1707 148.81 72.9089 147.497 73.5154C141.127 76.7248 134.483 79.3211 127.65 81.2714C122.329 82.7774 116.998 84.2939 111.656 85.7384C96.809 90.0227 81.2475 91.0032 66.0044 88.6149C65.4525 88.5236 64.873 88.5567 63.7018 88.5097C72.0697 97.7222 80.0694 106.541 87.7297 115.882C95.4948 111.591 103.593 108.943 111.807 106.55C132.507 100.423 154.52 100.878 174.967 107.855C190.01 112.821 204.393 119.234 217.394 128.595C222.134 131.999 226.601 135.748 230.999 139.571C234.685 142.781 234.207 145.874 229.833 148.215C227.558 149.343 225.185 150.249 222.746 150.924C210.216 154.918 197.16 156.882 184.046 156.744C177.043 156.668 170.128 156.538 163.167 156.543C151.915 156.547 141.354 153.64 131.166 148.899C124.916 146.002 118.82 142.813 112.705 139.635C110.572 138.526 108.41 137.459 106.267 136.371L106.05 136.994Z" fill="#CDD884"/>
</svg>
