<svg width="205" height="271" viewBox="0 0 205 271" fill="none" xmlns="http://www.w3.org/2000/svg">
<path d="M0 183.381C0.590083 164.109 6.27267 146.612 18.1147 131.407C28.1785 118.484 41.1361 109.802 56.1468 104.17C66.4207 101.87 76.6219 99.5041 87.3485 100.479C99.716 101.604 111.922 103.27 123.845 106.903C134.903 110.277 145.443 114.801 154.666 122.067C162.572 128.299 169.645 135.331 174.155 144.696C178.881 154.567 180.84 165.601 179.814 176.557C178.468 194.603 172.669 211.994 162.968 227.081C148.208 249.985 127.709 264.416 101.486 269.94C93.4029 271.606 85.3762 271.09 77.2847 269.848C59.9379 267.19 45.4607 258.75 32.6971 246.786C24.0791 238.841 16.5516 229.722 10.3224 219.682C5.03002 211.163 1.6702 201.522 0.493084 191.479C0.194 188.855 0.161667 186.147 0 183.381Z" fill="#F2B770"/>
<path d="M241.757 244.744C240.754 244.834 239.752 244.552 238.933 243.949C238.113 243.346 237.53 242.461 237.287 241.453C236.964 240.153 236.649 238.904 236.309 237.662C232.429 223.373 226.027 210.117 219.803 196.836C213.708 183.839 207.233 171.008 200.492 158.402C199.148 155.603 197.502 152.97 195.585 150.553C195.278 150.553 195.011 150.503 194.922 150.611C186.96 159.243 177.026 164.276 166.081 167.517C148.645 172.674 132.673 169.45 118.212 158.427C109.102 151.478 101.01 143.304 93.1533 134.939C92.8665 134.639 92.5966 134.322 92.3449 133.989C89.8472 130.657 90.6636 128.032 94.6406 127.132C99.5929 125.952 104.624 125.155 109.692 124.749C116.894 124.258 124.072 123.566 131.234 122.733C142.098 121.467 152.857 122.783 163.624 124.058C169.952 124.705 176.227 125.819 182.401 127.391C182.555 127.432 182.765 127.291 182.959 127.224C183.056 126.391 182.393 125.966 182.005 125.416C176.274 117.484 170.438 107.536 164.893 99.479C161.619 94.7298 159.857 91.922 154.538 90.4889C142.001 87.1562 125.285 89.4641 113.58 89.1059C104.077 88.9415 94.608 87.893 85.2882 85.9731C78.9634 84.604 72.9997 81.8445 67.8039 77.8829C60.4845 72.1381 53.6511 65.7637 47.3774 58.828C38.5827 49.3464 29.7072 39.9481 21.737 29.7167C16.0787 22.4097 10.7194 14.836 5.48143 7.22076C5.19043 6.79583 4.89943 6.38757 4.6731 5.92099C3.40402 3.70473 3.73543 2.58827 6.06343 1.55512C7.64373 0.860213 9.34927 0.519411 11.067 0.555301C25.4963 0.717392 39.8932 2.00136 54.135 4.39627C71.2929 7.0996 88.1465 11.5597 104.446 17.7105C114.904 21.7045 124.314 28.1576 131.929 36.5571C145.299 51.0628 158.127 66.0517 168.959 82.6904C176.703 94.5882 185.028 106.019 193.112 117.684C194.307 119.413 195.41 121.207 196.418 123.058C204.574 138.055 212.851 152.919 220.765 168.05C228.848 183.522 236.414 199.302 242.364 215.816C245.08 223.315 246.478 231.255 247.901 239.145C248.386 241.836 247.69 242.986 245.233 243.969C244.116 244.395 242.946 244.656 241.757 244.744Z" fill="#D9D4E7"/>
</svg>
