<svg width="271" height="227" viewBox="0 0 271 227" fill="none" xmlns="http://www.w3.org/2000/svg">
<path d="M153.807 184.134C150.987 171.493 151.756 159.108 156.924 147.123C161.318 136.931 168.295 128.989 177.115 122.67C183.419 119.349 189.654 116.027 196.795 114.74C205.024 113.279 213.245 112.204 221.602 112.453C229.36 112.685 236.964 113.76 244.178 116.853C250.356 119.506 256.132 122.828 260.623 128.113C265.457 133.8 268.369 140.405 269.633 147.828C271.712 160.001 270.951 171.999 267.1 183.677C261.32 201.189 250.393 214.204 234.261 222.441C229.307 224.969 223.975 226.049 218.505 226.676C206.78 228.021 195.949 225.094 185.658 219.572C178.725 215.938 172.306 211.346 166.579 205.922C161.714 201.318 157.921 195.641 155.482 189.315C154.842 187.646 154.375 185.907 153.807 184.134Z" fill="#B1D1E4"/>
<path d="M74.2073 95.8032C74.9549 95.5309 75.1869 94.7935 75.58 94.2024C82.0889 84.4577 88.5527 74.6799 95.126 64.9751C98.1705 60.5988 101.624 56.5407 105.437 52.8591C112.724 45.5908 121.944 40.7212 131.924 38.8699C139.316 37.4351 146.52 38.6507 152.591 43.3869C160.324 49.4183 162.522 57.7946 160.93 67.4595C159.532 75.9287 155.162 82.5845 149.33 88.4233C140.559 97.2048 130.1 103.13 118.796 107.634C116.489 108.55 114.163 109.401 111.836 110.257C111.192 110.497 110.548 110.663 110.142 111.586C111.36 112.21 112.5 111.858 113.564 111.712C121.877 110.603 130.177 109.321 138.497 108.311C147.805 107.083 157.242 107.361 166.466 109.135C171.332 110.118 175.675 112.217 178.962 116.256C181.61 119.51 182.738 123.051 181.978 127.369C179.535 141.238 169.411 150.392 155.704 150.857C143.234 151.282 131.047 149.854 119.254 145.357C113.299 143.092 107.274 141.006 101.171 139.186C100.191 138.893 99.1538 138.256 98.5222 139.704C98.7413 140.933 99.7531 141.298 100.501 141.856C105.468 145.653 110.227 149.731 114.756 154.072C120.133 159.098 124.728 164.948 128.379 171.415C133.238 180.097 134.398 189.35 132.246 199.095C130.454 207.345 125.466 211.802 116.953 213.104C110.792 214.041 104.793 213.164 98.9089 211.284C95.0117 209.994 91.6073 207.472 89.1778 204.077C84.4218 197.72 81.496 190.4 78.7636 183C74.8518 172.412 72.8991 161.305 70.8111 150.239C70.6951 149.615 70.5791 148.99 70.4051 148.379C70.3407 148.147 70.1151 147.961 69.9669 147.748C68.8584 147.934 68.9293 148.851 68.7682 149.628C67.3598 156.945 65.2641 164.104 62.5107 171.004C57.7869 182.389 51.3102 192.658 43.7573 202.224C40.2709 206.641 36.0562 210.009 30.4947 211.131C24.5685 212.384 18.4176 211.849 12.7789 209.59C5.60622 206.721 3.17023 200.417 3.61489 193.681C4.25934 183.399 8.17111 174.504 14.9056 166.932C23.1639 157.677 32.1951 149.189 41.8949 141.564C42.7584 140.899 43.9184 140.421 44.2535 139.02C43.2933 138.309 42.3202 138.674 41.4309 138.847C29.2509 141.298 16.9742 140.474 4.69756 140.036C-1.39775 139.928 -7.46344 139.135 -13.392 137.671C-19.8364 135.964 -25.5849 132.975 -30.2571 127.933C-35.5222 122.254 -35.6124 114.402 -30.3216 108.67C-27.0284 105.083 -22.904 102.804 -18.4896 101.104C-11.6029 98.4686 -4.24545 97.3968 3.08 97.9621C19.6229 99.078 34.7416 104.857 49.4349 112.217C49.9118 112.456 50.3822 112.695 50.8784 112.881C51.0138 112.941 51.2136 112.881 51.4842 112.821C52.0256 111.586 51.1104 110.769 50.5369 109.958C47.9591 106.367 45.362 102.8 42.7456 99.2573C38.5218 93.6455 34.7398 87.6947 31.4356 81.462C26.9631 72.913 24.7527 63.7662 25.7516 54.1146C26.7504 44.4629 30.05 35.728 37.6222 29.298C40.5635 26.7567 44.1345 25.1119 47.9333 24.5486C53.8687 23.6983 58.6311 26.1694 62.356 30.8524C65.0369 34.2268 66.4804 38.2655 67.6469 42.3772C69.5938 49.5604 70.8904 56.9142 71.52 64.3441C72.5326 74.0308 73.0081 83.7691 72.9442 93.5115C72.9313 94.5279 72.8669 95.5774 74.2073 95.8032Z" fill="#DB8276"/>
<path d="M160.863 1.32863C167.485 2.92421 173.208 7.2776 177.881 12.3746C185.546 20.7842 190.755 31.2504 192.912 42.5725C203.724 37.1554 215.277 32.5066 227.312 32.4573C239.347 32.4081 251.975 37.7661 258.081 48.4477C265.572 61.5472 261.234 79.074 251.746 90.7159C242.257 102.358 228.655 109.43 215.434 116.216L183.423 132.625C181.828 133.442 180.155 134.279 178.373 134.255C175.908 134.22 173.772 132.566 171.885 130.931C156.181 117.348 141.097 98.4279 133.725 78.424C130.605 69.9634 128.727 60.9415 126.482 52.2101C123.266 39.6916 123.51 26.6019 130.782 15.6495C137.389 5.80513 148.99 -1.53259 160.863 1.32863Z" fill="#F2D3C2"/>
</svg>
