<svg width="62" height="62" viewBox="0 0 62 62" fill="none" xmlns="http://www.w3.org/2000/svg">
<circle cx="31" cy="31" r="31" fill="white"/>
<path d="M41.2511 14.2778C41.034 14.0924 40.7591 13.9938 40.4771 14.0003C40.195 14.0068 39.9247 14.1179 39.7159 14.3131C39.5926 14.4288 27.3068 25.9316 18.2989 34.5705L18.2755 34.5937L18.2638 34.6058C18.2328 34.6386 18.2036 34.6732 18.1764 34.7094L18.1678 34.7198C18.1396 34.7562 18.1136 34.7943 18.0898 34.8339L18.0827 34.8435V34.8483C18.0432 34.9181 18.0108 34.9918 17.986 35.0684C17.7175 35.6739 17.454 36.2816 17.1954 36.8914C16.8692 37.664 16.5505 38.4403 16.2393 39.2204C15.9693 39.8987 15.7068 40.5808 15.4519 41.2667C15.2042 41.9332 14.9662 42.6038 14.7378 43.2784C14.5182 43.9262 14.3101 44.5778 14.1134 45.2332C14.09 45.3135 14.0658 45.3938 14.0424 45.4741C13.9859 45.6843 13.9859 45.9064 14.0424 46.1166C14.1343 46.4146 14.3245 46.6702 14.5801 46.8394C14.7597 46.946 14.9636 47.0014 15.1709 47C16.0294 46.8964 16.8832 46.7687 17.7308 46.5984C18.4009 46.4635 19.0653 46.3029 19.724 46.1166C20.3369 45.942 20.9433 45.7474 21.5432 45.5327C22.1294 45.3247 22.71 45.1006 23.2875 44.8702C23.8783 44.6332 24.4668 44.3883 25.0552 44.1474L25.2785 44.0558C25.427 44.0203 25.5641 43.9459 25.6765 43.8398C25.7547 43.7873 25.8243 43.7222 25.8825 43.647C26.0109 43.5896 26.1284 43.5094 26.2298 43.4101C26.3383 43.3049 37.1561 32.7426 47.6078 23.1914C47.8124 23.0039 47.9466 22.7486 47.9871 22.4697C48.0276 22.1909 47.9718 21.9063 47.8294 21.6655C45.7253 18.1158 41.4352 14.4328 41.2511 14.2778ZM22.9559 42.4231C22.4095 42.6456 21.8539 42.8624 21.2982 43.0656C20.7425 43.2688 20.1603 43.4671 19.5812 43.643C18.9725 43.8277 18.3582 43.9907 17.7386 44.1321C17.4482 44.1979 17.1564 44.2574 16.8637 44.3136C16.9691 43.9924 17.076 43.6776 17.1868 43.3611C17.5167 42.4119 17.8647 41.4693 18.231 40.5334C18.4199 40.0516 18.6124 39.5697 18.8086 39.0879C19.0843 38.4197 19.3661 37.7542 19.6538 37.0913C22.6523 38.8212 23.7121 40.8924 24.0789 41.9621C23.7059 42.1195 23.3312 42.2737 22.9559 42.4231ZM25.9574 40.3575C25.2831 38.8855 23.9049 36.8705 21.1062 35.172C25.8505 30.6329 31.2785 25.5067 35.3103 21.7121C35.4997 21.8582 35.688 22.0055 35.8754 22.1538C36.5895 22.7248 37.2911 23.3151 37.9638 23.9383C38.6618 24.5819 39.3244 25.2651 39.9485 25.9845C40.1155 26.1778 40.2794 26.3741 40.4402 26.5732C34.1396 32.4567 28.4517 37.9394 25.9543 40.36L25.9574 40.3575ZM42.1704 24.963C42.044 24.8024 41.9168 24.6498 41.7872 24.4956C41.423 24.0635 41.0442 23.6454 40.6509 23.2412C40.2575 22.8369 39.8593 22.4531 39.456 22.0895C39.0408 21.7105 38.6147 21.3426 38.1823 20.9845C37.8101 20.6753 37.4315 20.3733 37.0515 20.0738C38.578 18.6386 39.79 17.5039 40.5205 16.8172C41.6631 17.8685 43.8343 19.979 45.2922 22.0823C44.2511 23.0396 43.2022 24.0049 42.1704 24.9654V24.963Z" fill="#C68CAE"/>
</svg>
