<svg width="146" height="123" viewBox="0 0 146 123" fill="none" xmlns="http://www.w3.org/2000/svg">
<path d="M72.9269 46.2931C73.4296 46.1165 73.5855 45.6386 73.8499 45.2554C78.2266 38.9392 82.5729 32.6014 86.9929 26.311C89.0401 23.4743 91.3623 20.8439 93.9262 18.4576C98.826 13.7465 105.026 10.5901 111.736 9.39015C116.707 8.46015 121.551 9.24806 125.633 12.3179C130.833 16.2274 132.311 21.6567 131.241 27.9213C130.3 33.4108 127.362 37.725 123.441 41.5096C117.543 47.2015 110.51 51.0421 102.909 53.9613C101.358 54.5554 99.7936 55.1065 98.2292 55.662C97.7959 55.817 97.3625 55.9246 97.0896 56.5231C97.9086 56.9278 98.6756 56.6996 99.3905 56.6049C104.981 55.8858 110.562 55.0549 116.156 54.4004C122.415 53.6042 128.76 53.7844 134.963 54.9343C138.235 55.5715 141.155 56.9321 143.365 59.5499C145.146 61.6596 145.905 63.9545 145.393 66.7531C143.751 75.7431 136.943 81.6761 127.726 81.9775C119.341 82.2531 111.147 81.3274 103.217 78.4125C99.2129 76.9443 95.1612 75.5924 91.0576 74.4127C90.3989 74.2232 89.7012 73.8099 89.2766 74.7485C89.4239 75.545 90.1042 75.7818 90.6069 76.1435C93.9469 78.6046 97.1469 81.248 100.192 84.0614C103.808 87.3195 106.898 91.1112 109.353 95.3032C112.62 100.931 113.4 106.928 111.953 113.244C110.748 118.592 107.394 121.481 101.67 122.325C97.5272 122.932 93.4929 122.364 89.5366 121.145C86.9161 120.309 84.6268 118.675 82.9932 116.474C79.7952 112.353 77.8279 107.608 75.9906 102.812C73.3602 95.949 72.0472 88.7501 70.6432 81.5771C70.5652 81.1724 70.4872 80.7676 70.3702 80.3715C70.3269 80.2208 70.1752 80.1003 70.0756 79.9625C69.3302 80.0831 69.3779 80.6772 69.2696 81.181C68.3225 85.924 66.9133 90.5643 65.0619 95.0363C61.8856 102.416 57.5306 109.072 52.4519 115.272C50.1076 118.136 47.2736 120.318 43.5339 121.046C39.549 121.858 35.4131 121.511 31.6216 120.047C26.7986 118.187 25.1606 114.101 25.4596 109.735C25.8929 103.07 28.5232 97.3053 33.0516 92.397C38.6046 86.3985 44.6773 80.8964 51.1996 75.954C51.7802 75.5235 52.5602 75.2135 52.7856 74.305C52.1399 73.8443 51.4856 74.0811 50.8876 74.1931C42.6976 75.7818 34.4426 75.2479 26.1876 74.9638C22.089 74.8936 18.0103 74.3796 14.0239 73.431C9.69056 72.3245 5.82523 70.387 2.68356 67.119C-0.856774 63.4378 -0.91744 58.3486 2.64023 54.6329C4.85456 52.3079 7.62789 50.8311 10.5962 49.7289C15.2269 48.0207 20.1742 47.326 25.0999 47.6924C36.2236 48.4157 46.3896 52.1615 56.2696 56.9321C56.5902 57.0871 56.9066 57.2421 57.2402 57.3627C57.3312 57.4014 57.4656 57.3626 57.6476 57.3239C58.0116 56.5231 57.3962 55.9935 57.0106 55.4682C55.2772 53.1403 53.5309 50.8283 51.7716 48.532C48.9314 44.8945 46.3883 41.0373 44.1666 36.9974C41.1592 31.4561 39.6729 25.5274 40.3446 19.2714C41.0162 13.0154 43.2349 7.35362 48.3266 3.18584C50.3043 1.53864 52.7055 0.472499 55.2599 0.107372C59.2509 -0.443739 62.4532 1.15793 64.9579 4.19334C66.7606 6.38057 67.7312 8.99834 68.5156 11.6635C69.8247 16.3195 70.6965 21.086 71.1199 25.902C71.8008 32.1806 72.1205 38.4928 72.0776 44.8077C72.0689 45.4664 72.0256 46.1467 72.9269 46.2931Z" fill="#BD8EAC"/>
</svg>
